<svg width="40" height="40" viewBox="0 0 301 354" fill="none" xmlns="http://www.w3.org/2000/svg">
<path d="M158.609 350.655L297.089 236.174C301.59 232.453 301.59 226.405 297.089 222.684C292.588 218.964 285.272 218.964 280.771 222.684L162.001 320.871L162.001 9.99878C162.001 4.73268 156.832 0.45874 150.461 0.45874C144.091 0.45874 138.921 4.73268 138.921 9.99878L138.921 320.871L20.1516 222.684C15.651 218.964 8.33464 218.964 3.83404 222.684C1.57219 224.554 0.464355 226.997 0.464355 229.439C0.464355 231.881 1.59527 234.323 3.83404 236.193L142.314 350.674C146.815 354.394 154.131 354.394 158.632 350.674L158.609 350.655Z" fill="#006e6e"/>
</svg>
