<svg width="40" height="40" viewBox="0 0 354 301" fill="none" xmlns="http://www.w3.org/2000/svg">
<path d="M351.157 142.817L236.677 4.33687C232.956 -0.163734 226.908 -0.163734 223.187 4.33687C219.467 8.83748 219.467 16.1538 223.187 20.6544L321.373 139.424L10.5015 139.424C5.23537 139.424 0.961428 144.594 0.961428 150.964C0.961427 157.334 5.23537 162.504 10.5015 162.504L321.373 162.504L223.187 281.274C219.467 285.775 219.467 293.091 223.187 297.592C225.057 299.854 227.499 300.961 229.942 300.961C232.384 300.961 234.826 299.831 236.696 297.592L351.176 159.112C354.897 154.611 354.897 147.295 351.176 142.794L351.157 142.817Z" fill="#006e6e"/>
</svg>
