<svg width="208" height="139" viewBox="0 0 208 139" fill="none" xmlns="http://www.w3.org/2000/svg">
<path d="M196.123 59.9725C192.956 55.7684 181.19 52.8735 176.213 45.3078C171.235 37.7422 167.161 21.3579 154.492 15.0625C141.824 8.76719 117.61 7 103.784 7C89.9574 7 65.7612 8.7283 53.0755 15.0496C40.3897 21.3708 36.3325 37.7422 31.355 45.2949C26.3775 52.8476 14.6121 55.7684 11.445 59.9725C8.27786 64.1766 6.04835 90.7536 7.40507 103.785C8.76178 116.816 11.2937 124.525 11.2937 124.525H48.4523C54.5359 124.525 56.5148 122.239 68.9586 121.068C82.6122 119.772 96.0065 119.34 103.784 119.34C111.561 119.34 125.388 119.772 139.033 121.068C151.476 122.248 153.52 124.525 159.539 124.525H196.265C196.265 124.525 198.797 116.816 200.154 103.785C201.511 90.7536 199.273 64.1766 196.123 59.9725Z" stroke="#f3f3f3" stroke-width="13.8264" stroke-linecap="round" stroke-linejoin="round"/>
<path d="M166.003 124.525H190.199V131.438H166.003V124.525Z" stroke="#f3f3f3" stroke-width="13.8264" stroke-linecap="round" stroke-linejoin="round"/>
<path d="M17.3687 124.525H41.5649V131.438H17.3687V124.525Z" stroke="#f3f3f3" stroke-width="13.8264" stroke-linecap="round" stroke-linejoin="round"/>
<path d="M150.651 92.188C148.098 89.2369 139.776 86.7741 128.758 85.1236C117.74 83.473 113.722 83.0453 103.87 83.0453C94.0189 83.0453 89.5383 83.7539 78.9784 85.1236C68.4184 86.4933 60.4899 88.9302 57.0894 92.188C51.9866 97.131 59.4615 102.679 65.3291 103.353C71.0152 104.001 82.3831 103.763 103.918 103.763C125.452 103.763 136.82 104.001 142.506 103.353C148.365 102.64 155.305 97.4766 150.651 92.188V92.188Z" fill="#f3f3f3"/>
<path d="M179.643 63.6235C179.619 63.2803 179.469 62.9582 179.222 62.719C178.974 62.4797 178.648 62.3403 178.304 62.3273C173.201 62.1458 168.02 62.5087 158.83 65.2179C154.141 66.5867 149.738 68.7911 145.833 71.7249C144.848 72.494 145.198 74.5723 146.434 74.7926C154.009 75.6811 161.629 76.1284 169.256 76.1321C173.832 76.1321 178.554 74.8359 179.432 70.7571C179.879 68.4053 179.95 65.9976 179.643 63.6235V63.6235Z" fill="#f3f3f3"/>
<path d="M27.9242 63.6235C27.9485 63.2803 28.0986 62.9582 28.3458 62.719C28.593 62.4797 28.9199 62.3403 29.2636 62.3273C34.3665 62.1458 39.547 62.5087 48.7373 65.2179C53.426 66.5867 57.829 68.7911 61.7341 71.7249C62.7193 72.494 62.3693 74.5723 61.1335 74.7926C53.5585 75.6811 45.9382 76.1284 38.3113 76.1321C33.7356 76.1321 29.013 74.8359 28.1359 70.7571C27.6887 68.4053 27.6173 65.9976 27.9242 63.6235V63.6235Z" fill="#f3f3f3"/>
<path d="M179.829 41.566H186.742" stroke="#f3f3f3" stroke-width="13.8264" stroke-linecap="round" stroke-linejoin="round"/>
<path d="M20.8252 41.566H27.7384" stroke="#f3f3f3" stroke-width="13.8264" stroke-linecap="round" stroke-linejoin="round"/>
<path d="M26.8745 49.7755C26.8745 49.7755 46.9012 44.5906 103.784 44.5906C160.667 44.5906 180.693 49.7755 180.693 49.7755" stroke="#f3f3f3" stroke-width="13.8264" stroke-linecap="round" stroke-linejoin="round"/>
</svg>
