<svg width="192" height="192" viewBox="0 0 192 192" fill="none" xmlns="http://www.w3.org/2000/svg">
<path fill-rule="evenodd" clip-rule="evenodd" d="M131.673 47.6154L147.934 23.8447C132.899 24.7401 114.717 28.2711 97.2708 33.3181C85.4162 36.7477 72.2141 36.2303 59.9401 33.9657C56.0744 33.2525 52.2661 32.3593 48.5789 31.3436L59.6237 47.6034C82.1761 55.9284 109.117 55.9322 131.673 47.6154V47.6154ZM54.0008 55.7001C79.9479 66.001 111.41 65.9976 137.353 55.6905C147.902 66.6338 158.798 80.2518 167.193 94.4965C175.97 109.388 181.51 124.116 181.874 136.766C182.219 148.738 178.013 159.052 166.165 166.971C153.609 175.363 131.73 181.531 95.8482 181.879C59.9564 182.226 38.044 176.475 25.4523 168.334C13.6025 160.673 9.31485 150.47 9.58506 138.431C9.87073 125.705 15.347 110.765 24.1049 95.5586C32.4656 81.0416 43.3643 67.0626 54.0008 55.7001V55.7001ZM46.2488 20.676C51.1661 22.2238 56.3755 23.5729 61.6772 24.5511C73.1542 26.6688 84.7178 26.9837 94.6104 24.1219C107.183 20.4848 120.381 17.5376 132.749 15.7917C122.195 12.3173 109.436 9.57333 95.9406 9.57333C76.4637 9.57333 58.382 15.2883 46.2488 20.676V20.676ZM37.0818 14.4189C50.0293 7.93371 71.9192 0 95.9406 0C119.517 0 140.875 7.64254 153.766 14.0571C153.983 14.1649 154.197 14.2723 154.409 14.3793C157.882 16.1348 160.706 17.7858 162.747 19.1467L143.1 47.8667C188.391 94.1667 242.445 190.035 95.9406 191.451C-50.5642 192.867 2.54526 95.9373 48.2295 47.8667L28.72 19.1467C30.0852 18.2495 31.793 17.2262 33.8044 16.1299C34.8211 15.5759 35.9148 15.0033 37.0818 14.4189V14.4189Z" fill="#f3f3f3"/>
<path d="M87.5418 81.3733H103.925V89.032H120.307V104.349H87.5418L86.8047 104.411C85.8602 104.57 85.0058 105.035 84.3907 105.724C83.7756 106.412 83.4382 107.282 83.4382 108.179C83.4382 109.076 83.7756 109.945 84.3907 110.633C85.0058 111.322 85.8602 111.787 86.8047 111.947L87.5418 112.008H103.925L105.268 112.046C110.581 112.361 115.554 114.597 119.134 118.281C122.713 121.966 124.617 126.808 124.442 131.783C124.267 136.758 122.028 141.473 118.198 144.93C114.367 148.387 109.248 150.314 103.925 150.301V157.96H87.5418V150.301H71.1589V134.984H103.925L104.662 134.923C105.606 134.763 106.461 134.298 107.076 133.609C107.691 132.921 108.028 132.052 108.028 131.155C108.028 130.258 107.691 129.388 107.076 128.7C106.461 128.011 105.606 127.546 104.662 127.387L103.925 127.325H87.5418L86.1987 127.287C80.8855 126.973 75.9121 124.736 72.3326 121.052C68.7536 117.368 66.8495 112.525 67.0242 107.55C67.1989 102.575 69.4386 97.86 73.2684 94.4036C77.0992 90.9461 82.2181 89.0195 87.5418 89.032V81.3733Z" fill="#f3f3f3"/>
</svg>
