<svg width="50" height="50" viewBox="0 0 1240 1311" fill="none" xmlns="http://www.w3.org/2000/svg">
<path fill-rule="evenodd" clip-rule="evenodd" d="M619.985 0.950701C539.015 0.925903 460.169 26.8569 395.02 74.9377C329.871 123.019 281.85 190.717 258.006 268.096C234.161 345.476 235.749 428.461 262.535 504.872C289.322 581.283 339.897 647.095 406.837 692.649C290.659 735.261 189.89 811.665 117.501 912.028C45.1113 1012.39 4.41307 1132.12 0.643863 1255.81C0.233032 1269.51 5.2791 1282.8 14.672 1292.78C24.0649 1302.75 37.0352 1308.58 50.7295 1309C64.4239 1309.41 77.7206 1304.36 87.6945 1294.97C97.6684 1285.57 103.502 1272.6 103.913 1258.91C108.013 1124.76 164.185 997.477 260.527 904.036C356.868 810.594 485.807 758.336 620.019 758.336C754.232 758.336 883.171 810.594 979.512 904.036C1075.85 997.477 1132.03 1124.76 1136.13 1258.91C1136.18 1265.78 1137.6 1272.58 1140.32 1278.9C1143.03 1285.21 1146.98 1290.93 1151.93 1295.7C1156.88 1300.47 1162.73 1304.2 1169.15 1306.68C1175.56 1309.16 1182.4 1310.33 1189.27 1310.13C1196.15 1309.93 1202.91 1308.36 1209.17 1305.51C1215.42 1302.66 1221.05 1298.58 1225.71 1293.53C1230.37 1288.48 1233.98 1282.54 1236.31 1276.08C1238.65 1269.61 1239.68 1262.75 1239.33 1255.88C1235.57 1132.18 1194.88 1012.43 1122.49 912.057C1050.1 811.679 949.322 735.265 833.133 692.649C900.073 647.095 950.648 581.283 977.435 504.872C1004.22 428.461 1005.81 345.476 981.964 268.096C958.12 190.717 910.099 123.019 844.95 74.9377C779.801 26.8569 700.955 0.925903 619.985 0.950701V0.950701ZM344.6 379.605C344.6 306.569 373.614 236.523 425.258 184.879C476.903 133.234 546.948 104.22 619.985 104.22C693.022 104.22 763.067 133.234 814.712 184.879C866.356 236.523 895.37 306.569 895.37 379.605C895.37 452.642 866.356 522.687 814.712 574.332C763.067 625.977 693.022 654.99 619.985 654.99C546.948 654.99 476.903 625.977 425.258 574.332C373.614 522.687 344.6 452.642 344.6 379.605V379.605Z" fill="#E2FAFF"/>
</svg>
